<svg width="30" height="16" viewBox="0 0 30 16" fill="none" xmlns="http://www.w3.org/2000/svg">
<g clip-path="url(#clip0_268_518)">
<path fill-rule="evenodd" clip-rule="evenodd" d="M15 15.3511C23.2837 15.3511 30 11.9478 30 7.74854C30 3.55176 23.2837 0.148438 15 0.148438C6.71631 0.148438 0 3.55176 0 7.75098C0 11.9478 6.71631 15.3511 15 15.3511ZM22.9199 6.24951C22.8052 6.12256 22.5024 6.05908 22.0093 6.05908H21.2646L20.8276 8.30274H21.2549C21.5552 8.30274 21.8091 8.27588 22.0215 8.22217C22.207 8.17578 22.356 8.10986 22.4683 8.02441C22.5781 7.94141 22.6709 7.82422 22.749 7.67285C22.8369 7.5044 22.9077 7.29443 22.9565 7.04297C23.0029 6.80859 23.0151 6.61572 22.9956 6.46191C22.9834 6.36182 22.959 6.29102 22.9199 6.24951ZM13.3203 1.82324H14.9829C15.2515 1.82324 15.4712 2.04297 15.4712 2.31152C15.4712 2.35303 15.4663 2.39453 15.4565 2.43359L15.1782 3.8667H16.0669C16.5723 3.8667 17.0044 3.91309 17.3657 4.00342C17.7661 4.10596 18.0859 4.26465 18.3252 4.48438C18.5327 4.67481 18.6792 4.90918 18.7671 5.1875L18.9404 4.2915C18.9722 4.05225 19.1772 3.8667 19.4238 3.8667H22.6465C23.1836 3.8667 23.6572 3.93994 24.0674 4.08887C24.4995 4.24512 24.856 4.48193 25.1343 4.79932C25.415 5.12158 25.5981 5.50244 25.6812 5.94434C25.7593 6.36182 25.7495 6.82568 25.6494 7.34082C25.6079 7.54834 25.5518 7.75342 25.481 7.95361C25.4102 8.15137 25.3247 8.33936 25.2246 8.51758C25.1221 8.69824 25.0073 8.87158 24.8804 9.03027C24.751 9.19141 24.6069 9.34766 24.4482 9.4917C24.2554 9.67236 24.0527 9.82617 23.8403 9.95313C23.6206 10.085 23.3936 10.1875 23.1567 10.2656C22.9272 10.3413 22.6636 10.3975 22.3706 10.4341C22.0801 10.4707 21.77 10.4902 21.4429 10.4902H20.4102L20.0879 12.1113C20.0562 12.3506 19.8511 12.5361 19.6045 12.5361H17.9297C17.9004 12.5361 17.8687 12.5337 17.8369 12.5264C17.5732 12.4751 17.3999 12.2212 17.4487 11.9551L17.7368 10.4731C17.6978 10.4829 17.6562 10.4878 17.6147 10.4878H15.9253C15.6567 10.4878 15.437 10.2681 15.437 9.99951C15.437 9.95801 15.4419 9.9165 15.4517 9.87744L16.106 6.50586C16.1353 6.35693 16.145 6.24219 16.1353 6.15918C16.1328 6.13477 16.1523 6.14697 16.145 6.13721L16.0767 6.12012C15.979 6.0957 15.8423 6.0835 15.6665 6.0835H14.7388L13.9648 10.0947C13.9209 10.3291 13.7158 10.4902 13.4863 10.4902H11.8237C11.5552 10.4902 11.3354 10.2705 11.3354 10.002C11.3354 9.96045 11.3403 9.91895 11.3501 9.87988L11.438 9.42334L11.3647 9.4917C11.1719 9.67236 10.9692 9.82617 10.7568 9.95313C10.5371 10.085 10.3101 10.1875 10.0732 10.2656C9.84375 10.3413 9.58008 10.3975 9.28711 10.4341C8.99658 10.4707 8.68652 10.4902 8.35938 10.4902H7.32422L7.00928 12.1113C6.97754 12.3506 6.77246 12.5361 6.52588 12.5361H4.85107C4.82178 12.5361 4.79004 12.5337 4.7583 12.5264C4.49463 12.4751 4.32129 12.2212 4.37012 11.9551L5.85938 4.2915C5.89111 4.05225 6.09619 3.8667 6.34277 3.8667H9.56543C10.1025 3.8667 10.5762 3.93994 10.9863 4.08887C11.4209 4.24512 11.7749 4.48193 12.0532 4.79932C12.1362 4.89453 12.2119 4.99707 12.2803 5.10449L12.8418 2.22119C12.8857 1.98682 13.0908 1.82324 13.3203 1.82324ZM9.84375 6.24951C9.729 6.12256 9.42627 6.05908 8.93311 6.05908H8.18604L7.74902 8.30274H8.17627C8.47656 8.30274 8.73047 8.27588 8.94287 8.22217C9.12842 8.17578 9.27734 8.10986 9.38965 8.02441C9.49951 7.94141 9.59229 7.82422 9.67041 7.67285C9.7583 7.5044 9.8291 7.29443 9.87793 7.04297C9.92432 6.80859 9.93652 6.61572 9.91699 6.46191C9.90479 6.36182 9.88037 6.29102 9.84375 6.24951Z" fill="#6884BA"/>
<path fill-rule="evenodd" clip-rule="evenodd" d="M22.0093 5.5708C22.6465 5.5708 23.0713 5.68799 23.2812 5.92236C23.4937 6.15674 23.5425 6.55957 23.4326 7.1333C23.3179 7.729 23.0933 8.15381 22.7637 8.40772C22.4341 8.66162 21.9287 8.78857 21.2549 8.78857H20.2368L20.8618 5.56836H22.0093V5.5708ZM13.3203 2.31152H14.9829L14.585 4.35742H16.0669C16.9995 4.35742 17.6416 4.521 17.9956 4.8457C18.3496 5.17041 18.4546 5.69775 18.313 6.42529L17.6172 10.0044H15.9277L16.5894 6.60107C16.665 6.21289 16.6357 5.94922 16.5063 5.81006C16.3745 5.66846 16.0986 5.59766 15.6714 5.59766H14.3433L13.4863 10.0044H11.8237L13.3203 2.31152ZM8.93311 5.5708C9.57031 5.5708 9.99512 5.68799 10.2051 5.92236C10.4175 6.15674 10.4687 6.55957 10.3564 7.1333C10.2417 7.729 10.0171 8.15381 9.6875 8.40772C9.35791 8.66162 8.85254 8.78857 8.17871 8.78857H7.16064L7.78564 5.56836H8.93311V5.5708ZM4.85107 12.0479H6.52588L6.92383 10.002H8.35938C8.9917 10.002 9.51416 9.93604 9.92187 9.80176C10.332 9.66992 10.7031 9.44531 11.0376 9.13281C11.3184 8.87402 11.5454 8.59082 11.7188 8.27832C11.8921 7.96826 12.0166 7.62402 12.0898 7.24805C12.2681 6.3374 12.1338 5.62695 11.6895 5.1167C11.2451 4.60889 10.5371 4.35254 9.56787 4.35254H6.34521L4.85107 12.0479ZM17.9272 12.0479H19.6021L20 10.002H21.4355C22.0679 10.002 22.5903 9.93604 22.998 9.80176C23.4082 9.66992 23.7793 9.44531 24.1138 9.13281C24.3945 8.87402 24.6216 8.59082 24.7949 8.27832C24.9683 7.96826 25.0928 7.62402 25.166 7.24805C25.3442 6.3374 25.21 5.62695 24.7656 5.1167C24.3213 4.60889 23.6133 4.35254 22.644 4.35254H19.4214L17.9272 12.0479Z" fill="black"/>
</g>
<defs>
<clipPath id="clip0_268_518">
<rect width="30" height="15.2026" fill="white" transform="translate(0 0.148438)"/>
</clipPath>
</defs>
</svg>
