<svg width="30" height="37" viewBox="0 0 30 37" fill="none" xmlns="http://www.w3.org/2000/svg">
<g clip-path="url(#clip0_268_695)">
<path d="M28.0871 5.19482C24.7394 0.40362 18.1262 -1.01643 13.3468 2.02905L4.94969 7.38064C3.81371 8.09274 2.8389 9.03415 2.08764 10.1446C1.33637 11.2551 0.82521 12.5102 0.586856 13.8295C0.480382 14.4241 0.426384 15.0269 0.425487 15.631C0.430786 17.2733 0.833443 18.89 1.59908 20.343C0.88105 21.4336 0.391029 22.6581 0.158494 23.943C-0.0795499 25.289 -0.0464571 26.6691 0.255832 28.0022C0.558122 29.3353 1.12352 30.5946 1.91889 31.7063C5.26656 36.4975 11.8944 37.9176 16.6592 34.8721L25.0475 29.5205C26.1828 28.8075 27.1564 27.8649 27.9057 26.7533C28.6551 25.6417 29.1636 24.3856 29.3986 23.0657C29.5065 22.4723 29.5605 21.8703 29.56 21.2672C29.5579 19.6281 29.1603 18.0137 28.401 16.5611C29.1187 15.4714 29.6087 14.2479 29.8416 12.964C29.9457 12.3701 29.9987 11.7684 30.0001 11.1655C30.0006 9.02629 29.3317 6.94057 28.0871 5.20069V5.19482Z" fill="#FF3E00"/>
<path d="M12.5252 32.1582C11.9771 32.2999 11.4132 32.3718 10.847 32.3723C9.76997 32.3726 8.70895 32.1117 7.7549 31.6119C6.80086 31.1121 5.98224 30.3885 5.36924 29.5029C4.62055 28.4563 4.21837 27.2015 4.21912 25.9146C4.21953 25.5527 4.25094 25.1915 4.313 24.8349C4.36284 24.5696 4.43048 24.3079 4.51545 24.0516L4.67389 23.5704L5.10225 23.8961C6.09668 24.6258 7.20784 25.1814 8.38831 25.5391L8.69931 25.633L8.66997 25.944C8.66997 25.9968 8.66997 26.0525 8.66997 26.1054C8.66937 26.4945 8.79042 26.874 9.01618 27.1909C9.19863 27.4608 9.44419 27.682 9.73154 27.8354C10.0189 27.9888 10.3394 28.0697 10.6651 28.0711C10.8354 28.0717 11.0051 28.05 11.1697 28.0066C11.3524 27.9582 11.5266 27.882 11.6861 27.7807L20.0744 22.4027C20.326 22.2433 20.5331 22.0227 20.6763 21.7615C20.8194 21.5004 20.894 21.2071 20.893 20.9093C20.8906 20.5202 20.7664 20.1416 20.5379 19.8266C20.3527 19.5602 20.1057 19.3425 19.818 19.1923C19.5304 19.0421 19.2106 18.9638 18.8861 18.964C18.7158 18.9634 18.5461 18.9851 18.3815 19.0286C18.1993 19.076 18.026 19.1522 17.868 19.2545L14.67 21.2966C14.1428 21.6306 13.5681 21.8828 12.9653 22.0447C12.4171 22.1861 11.8533 22.258 11.2871 22.2589C10.2105 22.2587 9.14988 21.9979 8.19598 21.4988C7.24207 20.9996 6.4232 20.2769 5.80934 19.3924C5.06154 18.3453 4.65945 17.0908 4.65922 15.8041C4.65962 15.4422 4.69103 15.081 4.7531 14.7244C4.89655 13.9314 5.20326 13.1768 5.65379 12.5086C6.10432 11.8404 6.68882 11.2731 7.37022 10.8428L15.7673 5.49411C16.2941 5.1588 16.8689 4.90554 17.4719 4.74301C18.0203 4.60248 18.5841 4.53151 19.1502 4.53176C20.2295 4.52899 21.2933 4.7881 22.2505 5.28685C23.2076 5.78561 24.0295 6.50913 24.6455 7.39533C25.3887 8.44497 25.7856 9.70044 25.781 10.9865C25.7806 11.3494 25.7492 11.7116 25.6871 12.0692C25.6372 12.3345 25.5696 12.5963 25.4846 12.8525L25.3262 13.3337L24.8978 13.0198C23.9041 12.2889 22.7927 11.7332 21.6118 11.3767L21.3008 11.2799L21.3301 10.9689C21.3301 10.9161 21.3301 10.8604 21.3301 10.8076C21.3302 10.4176 21.2092 10.0373 20.9839 9.71905C20.799 9.453 20.5524 9.23561 20.2653 9.08541C19.9782 8.93522 19.659 8.85667 19.335 8.85645C19.1661 8.86019 18.9985 8.88583 18.8362 8.93274C18.6529 8.97928 18.4785 9.0556 18.3198 9.15866L9.92278 14.5073C9.71724 14.6377 9.54097 14.8094 9.40512 15.0114C9.26928 15.2134 9.1768 15.4413 9.13354 15.6809C9.11284 15.7834 9.10008 15.8874 9.0954 15.9919C9.09521 16.38 9.21625 16.7585 9.44161 17.0745C9.62639 17.3408 9.87289 17.5583 10.16 17.7085C10.4472 17.8587 10.7664 17.9372 11.0905 17.9371C11.2608 17.9377 11.4305 17.916 11.5952 17.8726C11.7783 17.8255 11.9527 17.7492 12.1115 17.6467L15.3154 15.5929C15.8423 15.2583 16.4172 15.006 17.0201 14.8447C17.5683 14.7032 18.1322 14.6312 18.6983 14.6305C19.7754 14.6305 20.8365 14.8912 21.7909 15.3903C22.7453 15.8895 23.5647 16.6123 24.179 17.497C24.9268 18.5441 25.3289 19.7986 25.3291 21.0853C25.3299 21.4513 25.2975 21.8166 25.2323 22.1767C25.0896 22.97 24.7831 23.7249 24.3325 24.3932C23.8819 25.0615 23.2971 25.6286 22.6152 26.0584L14.2328 31.4071C13.705 31.7426 13.1292 31.9959 12.5252 32.1582Z" fill="white"/>
</g>
<defs>
<clipPath id="clip0_268_695">
<rect width="30" height="36.0528" fill="white" transform="translate(0 0.424194)"/>
</clipPath>
</defs>
</svg>
